<?xml version="1.0" encoding="iso-8859-1"?>
<!-- Uploaded to: SVG Repo, www.svgrepo.com, Generator: SVG Repo Mixer Tools -->
<svg height="800px" width="800px" version="1.1" id="Layer_1" xmlns="http://www.w3.org/2000/svg" xmlns:xlink="http://www.w3.org/1999/xlink" 
	 viewBox="0 0 512 512" xml:space="preserve">
<polygon style="fill:#847C7C;" points="414.112,433.952 97.889,433.952 97.889,341.323 32.462,341.323 32.462,501.801 
	479.54,501.801 479.54,341.323 414.112,341.323 "/>
<polygon style="fill:#1FCFC1;" points="256.001,378.024 357.481,276.544 296.401,276.544 296.401,10.199 215.599,10.199 
	215.599,276.544 154.52,276.544 "/>
<g>
	<path style="fill:#4D4D4D;" d="M479.54,512H32.462c-5.632,0-10.199-4.566-10.199-10.199V341.324
		c0-5.633,4.567-10.199,10.199-10.199h65.427c5.632,0,10.199,4.566,10.199,10.199v82.428h295.825v-82.428
		c0-5.633,4.567-10.199,10.199-10.199h65.427c5.632,0,10.199,4.566,10.199,10.199v160.476C489.739,507.434,485.172,512,479.54,512z
		 M42.661,491.602h426.68V351.524h-45.028v82.428c0,5.633-4.567,10.199-10.199,10.199H97.889c-5.632,0-10.199-4.566-10.199-10.199
		v-82.428H42.661V491.602z"/>
	<path style="fill:#4D4D4D;" d="M256.001,388.223c-2.611,0-5.22-0.995-7.212-2.987l-101.48-101.48
		c-2.916-2.917-3.789-7.305-2.211-11.115c1.579-3.811,5.297-6.296,9.423-6.296h50.881V10.199C205.401,4.566,209.968,0,215.6,0
		h80.801c5.632,0,10.199,4.566,10.199,10.199v256.146h50.881c4.126,0,7.844,2.486,9.423,6.296c1.578,3.81,0.705,8.198-2.211,11.115
		l-101.48,101.48C261.22,387.228,258.612,388.223,256.001,388.223z M179.144,286.743l76.856,76.857l76.856-76.857h-36.456
		c-5.632,0-10.199-4.566-10.199-10.199V20.398h-60.403v256.146c0,5.633-4.567,10.199-10.199,10.199H179.144z"/>
	<path style="fill:#4D4D4D;" d="M249.22,128.89c-5.632,0-10.199-4.566-10.199-10.199V42.972c0-5.633,4.567-10.199,10.199-10.199
		s10.199,4.566,10.199,10.199v75.718C259.419,124.324,254.852,128.89,249.22,128.89z"/>
	<path style="fill:#4D4D4D;" d="M249.22,171.834c-5.632,0-10.199-4.566-10.199-10.199v-5.65c0-5.633,4.567-10.199,10.199-10.199
		s10.199,4.566,10.199,10.199v5.65C259.419,167.268,254.852,171.834,249.22,171.834z"/>
</g>
</svg>